<svg xmlns="http://www.w3.org/2000/svg" viewBox="0 0 48 60" x="0px" y="0px"><title>callcenter_4-coding</title><g data-name="Layer 5"><path d="M45,0H3A3,3,0,0,0,0,3V9a1,1,0,0,0,1,1H43a1,1,0,0,0,0-2H2V3A1,1,0,0,1,3,2H45a1,1,0,0,1,1,1V45a1,1,0,0,1-1,1H3a1,1,0,0,1-1-1V13a1,1,0,0,0-2,0V45a3,3,0,0,0,3,3H45a3,3,0,0,0,3-3V3A3,3,0,0,0,45,0Z"/><circle cx="5" cy="5" r="1"/><circle cx="8" cy="5" r="1"/><circle cx="11" cy="5" r="1"/><circle cx="5" cy="14" r="1"/><circle cx="5" cy="18" r="1"/><circle cx="5" cy="22" r="1"/><circle cx="5" cy="26" r="1"/><circle cx="5" cy="30" r="1"/><circle cx="5" cy="38" r="1"/><circle cx="5" cy="42" r="1"/><path d="M13,13H9a1,1,0,0,0,0,2h4a1,1,0,0,0,0-2Z"/><path d="M9,43h4a1,1,0,0,0,0-2H9a1,1,0,0,0,0,2Z"/><path d="M17,17H11a1,1,0,0,0,0,2h6a1,1,0,0,0,0-2Z"/><path d="M27,17H21a1,1,0,0,0,0,2h6a1,1,0,0,0,0-2Z"/><path d="M15,27h6a1,1,0,0,0,0-2H15a1,1,0,0,0,0,2Z"/><path d="M33,26a1,1,0,0,0-1-1H25a1,1,0,0,0,0,2h7A1,1,0,0,0,33,26Z"/><path d="M12,22a1,1,0,0,0,1,1h8a1,1,0,0,0,0-2H13A1,1,0,0,0,12,22Z"/><path d="M34,22a1,1,0,0,0-1-1H25a1,1,0,0,0,0,2h8A1,1,0,0,0,34,22Z"/><path d="M43,23a1,1,0,0,0,0-2H37a1,1,0,0,0,0,2Z"/><path d="M26,30a1,1,0,0,0-1-1H15a1,1,0,0,0,0,2H25A1,1,0,0,0,26,30Z"/><circle cx="5" cy="34" r="1"/><path d="M22,34a1,1,0,0,0-1-1H13a1,1,0,0,0,0,2h8A1,1,0,0,0,22,34Z"/><path d="M11,37a1,1,0,0,0,0,2h7a1,1,0,0,0,0-2Z"/></g><text x="0" y="63" fill="#000000" font-size="5px" font-weight="bold" font-family="'Helvetica Neue', Helvetica, Arial-Unicode, Arial, Sans-serif">Created by KonKapp</text><text x="0" y="68" fill="#000000" font-size="5px" font-weight="bold" font-family="'Helvetica Neue', Helvetica, Arial-Unicode, Arial, Sans-serif">from the Noun Project</text></svg>