<svg xmlns="http://www.w3.org/2000/svg" xmlns:xlink="http://www.w3.org/1999/xlink" version="1.1" x="0px" y="0px" viewBox="0 0 100 125" enable-background="new 0 0 100 100" xml:space="preserve"><g><path d="M26.015,59.252h47.971c0.289,0,0.57,0.029,0.845,0.083c0.087-0.674,0.057-1.367-0.136-2.039   c-0.891-3.082-2.014-5.2-3.171-6.692c-2.248-2.904-4.613-3.372-5.621-3.564c-0.124-0.022-0.227-0.042-0.311-0.062   c-1.124-0.263-2.413-0.339-3.551-0.405c-0.916-0.054-1.79-0.102-2.5-0.244c-0.827,2.188-4.892,3.779-9.898,3.779   c-5.009,0-9.069-1.591-9.896-3.779c-0.715,0.143-1.589,0.193-2.504,0.246c-1.137,0.063-2.427,0.14-3.549,0.403   c-0.085,0.019-0.189,0.039-0.312,0.062c-0.951,0.184-3.112,0.599-5.245,3.087c-1.286,1.501-2.56,3.752-3.552,7.164   c-0.214,0.737-0.234,1.507-0.108,2.244C24.958,59.354,25.474,59.252,26.015,59.252z"/><path d="M31.616,13.955l1.209,0.523l-0.102,0.812c-0.464,0.08-0.816,0.482-0.816,0.968c0,0.437,0.284,0.808,0.68,0.933   l-0.734,10.28c-0.03,0.428,0.056,1.114,0.192,1.521l0.595,1.787c0.068,0.204,0.157,0.306,0.247,0.306   c0.089,0,0.179-0.102,0.247-0.306l0.596-1.787c0.136-0.407,0.223-1.093,0.192-1.521l-0.733-10.28   c0.393-0.126,0.68-0.496,0.68-0.933c0-0.486-0.353-0.888-0.818-0.968l-0.093-0.754l2.791,1.208l1.367,0.592v5.276l0.004,0.001   l4.512,1.953l0.719,0.312l0.002,0.001l5.217,2.259c0.541,0.233,1.252,0.351,1.964,0.351c0.711,0,1.423-0.118,1.962-0.351   l4.262-1.845l1.075-0.465l0.604-0.262l4.516-1.955v-0.626v-4.65l1.367-0.592l4.13-1.789c1.08-0.467,1.08-1.231,0-1.699   L51.495,5.351C50.956,5.117,50.244,5,49.533,5c-0.712,0-1.423,0.117-1.964,0.351l-15.953,6.905   C30.536,12.724,30.536,13.488,31.616,13.955z"/><path d="M36.411,26.992c-0.275,0.048-0.505,0.263-0.679,0.601c-0.268,0.517-0.405,1.323-0.381,2.267   c0.011,0.45,0.057,0.929,0.145,1.425c0.362,2.033,1.277,3.605,2.127,3.724c1.075,2.896,2.78,5.711,4.889,7.766   c1.189,1.167,2.513,2.089,3.92,2.65c0.969,0.381,1.981,0.597,3.021,0.597c1.038,0,2.05-0.212,3.018-0.597   c1.459-0.581,2.825-1.547,4.049-2.771c2.056-2.052,3.722-4.824,4.773-7.669c0.813-0.239,1.664-1.759,2.011-3.702   c0.375-2.108,0.021-3.947-0.793-4.251c0.03-0.516,0.049-1.037,0.046-1.568c-0.002-0.72-0.056-1.408-0.136-2.081l-3.905,1.691   c0.146,0.237,0.29,0.489,0.431,0.775c0.381,0.778,0.738,1.747,1.055,2.949c0,0.011,0,0.021,0,0.028v0   c0.005,0,0.005-0.001,0.008-0.002c0,0,0.001,0,0.002,0v0v0.001l0.01-0.01c0.083-0.064,0.168-0.113,0.251-0.141   c0.009-0.003,0.018-0.003,0.026-0.004c0.029-0.005,0.058-0.007,0.086-0.009c0.007,0,0.014,0,0.021,0   c0.037-0.002,0.08-0.016,0.113-0.009h0.003c0.041,0.006,0.083,0.022,0.12,0.037c0.05,0.023,0.096,0.055,0.139,0.094   c0.243,0.221,0.399,0.692,0.446,1.292c0.003,0.047,0.009,0.092,0.012,0.141c0.002,0.052,0.001,0.109,0.001,0.164   c0.002,0.06,0.004,0.118,0.003,0.181v0.001c-0.006,0.314-0.037,0.653-0.102,1.005c-0.016,0.094-0.039,0.173-0.063,0.264   c-0.207,0.951-0.588,1.731-0.993,2.077c-0.091,0.079-0.19,0.135-0.282,0.166c-0.088,0.029-0.173,0.041-0.259,0.026   c-0.093-0.015-0.184-0.064-0.263-0.139c-0.977,3.038-2.839,6.063-5.187,7.902c-0.349,0.27-0.706,0.516-1.071,0.731   c-1.115,0.655-2.316,1.041-3.567,1.041c-1.627,0-3.172-0.645-4.549-1.699c-2.392-1.831-4.29-4.896-5.278-7.976   c-0.081,0.074-0.172,0.123-0.267,0.139c-0.203,0.036-0.417-0.067-0.622-0.269c-0.052-0.053-0.104-0.111-0.154-0.176   c-0.353-0.453-0.662-1.204-0.818-2.085c-0.012-0.066-0.021-0.129-0.029-0.196c0.003-0.699,0.037-1.383,0.083-2.057   c0.087-0.26,0.204-0.462,0.356-0.569c0.065-0.045,0.134-0.078,0.207-0.089c0.167-0.028,0.342,0.036,0.514,0.173c0,0,0,0,0.001,0   c0-0.013,0.001-0.027,0.002-0.039c0.033-0.322,0.29-2.052,1.368-3.423c0.082-0.104,0.172-0.203,0.263-0.301l-0.001,0l-3.675-1.591   c-0.017,0.159-0.034,0.319-0.047,0.471c-0.238,0.968-0.375,1.975-0.375,3.017h0.024c0,0.009-0.001,0.017-0.003,0.024   C36.439,26.988,36.428,26.989,36.411,26.992z"/><path d="M71.747,93.188H28.254c-0.5,0-0.906,0.406-0.906,0.906S27.754,95,28.254,95h43.493c0.5,0,0.905-0.406,0.905-0.906   S72.247,93.188,71.747,93.188z"/><path d="M74.831,60.543c-0.274-0.053-0.556-0.083-0.845-0.083H26.015c-0.541,0-1.057,0.103-1.536,0.282   c-1.673,0.625-2.871,2.235-2.871,4.124v0.104l0.018,0.102l3.982,23.093c0.059,2.378,2.013,4.294,4.404,4.294h39.976   c2.392,0,4.346-1.916,4.404-4.294l3.981-23.093l0.018-0.102v-0.104C78.392,62.726,76.857,60.938,74.831,60.543z M50.001,77.956   c-1.047,0-1.898-0.848-1.898-1.897c0-1.046,0.851-1.894,1.898-1.894c1.047,0,1.895,0.848,1.895,1.894   C51.896,77.108,51.048,77.956,50.001,77.956z"/></g><text x="0" y="115" fill="#000000" font-size="5px" font-weight="bold" font-family="'Helvetica Neue', Helvetica, Arial-Unicode, Arial, Sans-serif">Created by Wilson Joseph</text><text x="0" y="120" fill="#000000" font-size="5px" font-weight="bold" font-family="'Helvetica Neue', Helvetica, Arial-Unicode, Arial, Sans-serif">from the Noun Project</text></svg>