<svg xmlns="http://www.w3.org/2000/svg" xmlns:xlink="http://www.w3.org/1999/xlink" version="1.1" x="0px" y="0px" viewBox="0 0 65 81.25" enable-background="new 0 0 65 65" xml:space="preserve"><g><path d="M25.4,21.3c0-3.7,3-6.7,6.7-6.7c3.7,0,6.7,3,6.7,6.7c0,3.7-3,6.7-6.7,6.7C28.4,28,25.4,25,25.4,21.3z"/><path d="M46.5,36.5l0,6.2c0,0.4-0.3,0.7-0.8,0.7H18.9c-0.4,0-0.8-0.3-0.8-0.8v-5.8c0-4.2,3.4-7.6,7.6-7.6H39   C43,29.4,46.3,32.5,46.5,36.5z"/><path d="M63.7,25.3l-4.4-1c-0.5-1.7-1.2-3.3-2-4.8l2.4-3.9c0.2-0.3,0.1-0.7-0.1-0.9l-9.2-9.2c-0.3-0.2-0.6-0.3-0.9-0.1l-3.9,2.4   c-1.5-0.8-3.2-1.5-4.8-2l-1.1-4.4C39.6,1,39.3,0.8,39,0.8H26c-0.3,0-0.7,0.2-0.7,0.6l-1.1,4.4c-1.7,0.5-3.3,1.2-4.8,2l-3.9-2.4   c-0.3-0.2-0.7-0.1-0.9,0.1l-9.2,9.2c-0.3,0.2-0.3,0.6-0.1,0.9l2.4,3.9c-0.8,1.5-1.5,3.1-2,4.8l-4.4,1C1,25.4,0.8,25.7,0.8,26v13   c0,0.4,0.2,0.7,0.6,0.7l4.4,1.1c0.5,1.7,1.2,3.3,2,4.8l-2.4,3.9c-0.2,0.3-0.1,0.7,0.1,0.9l9.2,9.1c0.3,0.2,0.6,0.3,0.9,0.1l3.9-2.4   c1.5,0.8,3.1,1.5,4.8,2l1.1,4.4c0.1,0.3,0.4,0.6,0.7,0.6h13c0.3,0,0.6-0.2,0.7-0.6l1.1-4.4c1.7-0.5,3.3-1.2,4.8-2l3.9,2.4   c0.3,0.2,0.7,0.1,0.9-0.1l9.2-9.1c0.3-0.3,0.3-0.6,0.1-0.9l-2.4-3.9c0.8-1.5,1.5-3.1,2-4.8l4.4-1.1c0.3-0.1,0.6-0.4,0.6-0.7V26   C64.2,25.7,64,25.4,63.7,25.3z M32.5,53.3C21,53.3,11.7,44,11.7,32.5c0-11.5,9.3-20.8,20.8-20.8c11.5,0,20.8,9.3,20.8,20.8   C53.3,44,44,53.3,32.5,53.3z"/></g><text x="0" y="80" fill="#000000" font-size="5px" font-weight="bold" font-family="'Helvetica Neue', Helvetica, Arial-Unicode, Arial, Sans-serif">Created by Vectors Point</text><text x="0" y="85" fill="#000000" font-size="5px" font-weight="bold" font-family="'Helvetica Neue', Helvetica, Arial-Unicode, Arial, Sans-serif">from the Noun Project</text></svg>